<?xml version="1.0" encoding="UTF-8" standalone="no"?><!DOCTYPE svg PUBLIC "-//W3C//DTD SVG 1.1//EN" "http://www.w3.org/Graphics/SVG/1.1/DTD/svg11.dtd"><svg width="100%" height="100%" viewBox="0 0 48 48" version="1.1" xmlns="http://www.w3.org/2000/svg" xmlns:xlink="http://www.w3.org/1999/xlink" xml:space="preserve" xmlns:serif="http://www.serif.com/" style="fill-rule:evenodd;clip-rule:evenodd;stroke-linejoin:round;stroke-miterlimit:2;"><path d="M48,12.952l0,22.096c0,7.148 -5.804,12.952 -12.952,12.952l-22.096,0c-7.148,0 -12.952,-5.804 -12.952,-12.952l0,-22.096c0,-7.148 5.804,-12.952 12.952,-12.952l22.096,-0c7.148,-0 12.952,5.804 12.952,12.952Z" style="fill:#ddd4ff;"/><g id="Layer_x0020_1"><path d="M24.957,8.328l18.861,11.754l-2.004,1.276l-0,8.474l-2.825,-0l-0,-6.652l-6.287,3.918c0.729,0.364 1.275,0.82 1.822,1.276c1.367,1.184 2.187,2.733 2.187,4.282c-0,2.369 -1.64,4.374 -4.191,5.741c-2.187,1.184 -5.194,1.913 -8.566,1.913c-3.28,0 -6.287,-0.729 -8.474,-1.913c-2.551,-1.367 -4.191,-3.372 -4.191,-5.741c0,-1.549 0.729,-3.007 2.005,-4.191c0.546,-0.547 1.275,-1.003 2.004,-1.367l-11.116,-7.016l19.772,-12.392l1.003,0.638Zm4.009,21.048l-5.012,3.098l-4.92,-3.098c-1.367,0.456 -2.551,1.093 -3.28,1.731c-0.547,0.547 -0.82,1.094 -0.82,1.549c-0,0.911 0.82,1.823 2.187,2.552c1.731,0.911 4.191,1.549 6.833,1.549c2.734,-0 5.194,-0.638 6.834,-1.549c1.367,-0.729 2.278,-1.641 2.278,-2.552c0,-0.546 -0.364,-1.093 -0.911,-1.64c-0.729,-0.638 -1.822,-1.184 -3.189,-1.64Zm2.278,-12.848l-7.29,-4.556l-12.938,8.11l12.938,8.201l13.03,-8.201l-5.74,-3.554Z" style="fill:#3400ff;fill-rule:nonzero;"/></g></svg>